<mxfile host="app.diagrams.net" modified="2023-05-09T20:40:01.407Z" agent="Mozilla/5.0 (Windows NT 10.0; Win64; x64; rv:109.0) Gecko/20100101 Firefox/112.0" etag="4SH9RL4htcnHVeL4jYmV" version="21.2.9" type="device">
  <diagram id="C5RBs43oDa-KdzZeNtuy" name="Page-1">
    <mxGraphModel dx="1434" dy="782" grid="1" gridSize="10" guides="1" tooltips="1" connect="1" arrows="1" fold="1" page="1" pageScale="1" pageWidth="827" pageHeight="1169" math="0" shadow="0">
      <root>
        <mxCell id="WIyWlLk6GJQsqaUBKTNV-0" />
        <mxCell id="WIyWlLk6GJQsqaUBKTNV-1" parent="WIyWlLk6GJQsqaUBKTNV-0" />
        <mxCell id="hF4yadosnlu50lzWg0tb-17" value="" style="rounded=0;whiteSpace=wrap;html=1;dashed=1;fillColor=none;" parent="WIyWlLk6GJQsqaUBKTNV-1" vertex="1">
          <mxGeometry x="311" y="58" width="339" height="193" as="geometry" />
        </mxCell>
        <mxCell id="hF4yadosnlu50lzWg0tb-21" style="edgeStyle=orthogonalEdgeStyle;rounded=0;orthogonalLoop=1;jettySize=auto;html=1;entryX=0;entryY=0.5;entryDx=0;entryDy=0;" parent="WIyWlLk6GJQsqaUBKTNV-1" source="WIyWlLk6GJQsqaUBKTNV-3" target="hF4yadosnlu50lzWg0tb-2" edge="1">
          <mxGeometry relative="1" as="geometry" />
        </mxCell>
        <mxCell id="WIyWlLk6GJQsqaUBKTNV-3" value="Anmeldedaten eingeben" style="rounded=1;whiteSpace=wrap;html=1;fontSize=12;glass=0;strokeWidth=1;shadow=0;" parent="WIyWlLk6GJQsqaUBKTNV-1" vertex="1">
          <mxGeometry x="150" y="92" width="130" height="50" as="geometry" />
        </mxCell>
        <mxCell id="hF4yadosnlu50lzWg0tb-8" style="edgeStyle=orthogonalEdgeStyle;rounded=0;orthogonalLoop=1;jettySize=auto;html=1;" parent="WIyWlLk6GJQsqaUBKTNV-1" source="WIyWlLk6GJQsqaUBKTNV-10" target="hF4yadosnlu50lzWg0tb-7" edge="1">
          <mxGeometry relative="1" as="geometry" />
        </mxCell>
        <mxCell id="hF4yadosnlu50lzWg0tb-26" style="edgeStyle=orthogonalEdgeStyle;rounded=0;orthogonalLoop=1;jettySize=auto;html=1;entryX=0.5;entryY=1;entryDx=0;entryDy=0;" parent="WIyWlLk6GJQsqaUBKTNV-1" edge="1" target="WIyWlLk6GJQsqaUBKTNV-3">
          <mxGeometry relative="1" as="geometry">
            <mxPoint x="567.9655172413793" y="164.85607196401781" as="sourcePoint" />
            <mxPoint x="473.0000000000002" y="222" as="targetPoint" />
            <Array as="points">
              <mxPoint x="568" y="222" />
              <mxPoint x="215" y="222" />
            </Array>
          </mxGeometry>
        </mxCell>
        <mxCell id="WIyWlLk6GJQsqaUBKTNV-10" value="Anmeldedaten korrekt" style="rhombus;whiteSpace=wrap;html=1;shadow=0;fontFamily=Helvetica;fontSize=12;align=center;strokeWidth=1;spacing=6;spacingTop=-4;" parent="WIyWlLk6GJQsqaUBKTNV-1" vertex="1">
          <mxGeometry x="510" y="67" width="115" height="100" as="geometry" />
        </mxCell>
        <mxCell id="hF4yadosnlu50lzWg0tb-4" style="edgeStyle=orthogonalEdgeStyle;rounded=0;orthogonalLoop=1;jettySize=auto;html=1;" parent="WIyWlLk6GJQsqaUBKTNV-1" source="hF4yadosnlu50lzWg0tb-0" target="WIyWlLk6GJQsqaUBKTNV-3" edge="1">
          <mxGeometry relative="1" as="geometry" />
        </mxCell>
        <mxCell id="hF4yadosnlu50lzWg0tb-0" value="" style="ellipse;whiteSpace=wrap;html=1;aspect=fixed;fillColor=#050505;" parent="WIyWlLk6GJQsqaUBKTNV-1" vertex="1">
          <mxGeometry x="70" y="97" width="40" height="40" as="geometry" />
        </mxCell>
        <mxCell id="hF4yadosnlu50lzWg0tb-12" style="edgeStyle=orthogonalEdgeStyle;rounded=0;orthogonalLoop=1;jettySize=auto;html=1;" parent="WIyWlLk6GJQsqaUBKTNV-1" source="hF4yadosnlu50lzWg0tb-2" target="WIyWlLk6GJQsqaUBKTNV-10" edge="1">
          <mxGeometry relative="1" as="geometry" />
        </mxCell>
        <mxCell id="hF4yadosnlu50lzWg0tb-2" value="Anmeldedaten gegen eine Datenbank überprüfen" style="rounded=1;whiteSpace=wrap;html=1;fontSize=12;glass=0;strokeWidth=1;shadow=0;" parent="WIyWlLk6GJQsqaUBKTNV-1" vertex="1">
          <mxGeometry x="345" y="92" width="130" height="50" as="geometry" />
        </mxCell>
        <mxCell id="hF4yadosnlu50lzWg0tb-7" value="" style="ellipse;whiteSpace=wrap;html=1;aspect=fixed;fillColor=#050505;" parent="WIyWlLk6GJQsqaUBKTNV-1" vertex="1">
          <mxGeometry x="681" y="97" width="40" height="40" as="geometry" />
        </mxCell>
        <mxCell id="hF4yadosnlu50lzWg0tb-10" value="Ja" style="text;html=1;align=center;verticalAlign=middle;resizable=0;points=[];autosize=1;strokeColor=none;fillColor=none;" parent="WIyWlLk6GJQsqaUBKTNV-1" vertex="1">
          <mxGeometry x="641" y="92" width="40" height="30" as="geometry" />
        </mxCell>
        <mxCell id="hF4yadosnlu50lzWg0tb-11" value="Benutzer angemeldet" style="text;html=1;strokeColor=none;fillColor=none;align=center;verticalAlign=middle;whiteSpace=wrap;rounded=0;" parent="WIyWlLk6GJQsqaUBKTNV-1" vertex="1">
          <mxGeometry x="663.5" y="142" width="75" height="30" as="geometry" />
        </mxCell>
        <mxCell id="hF4yadosnlu50lzWg0tb-16" value="Nein" style="text;html=1;align=center;verticalAlign=middle;resizable=0;points=[];autosize=1;strokeColor=none;fillColor=none;" parent="WIyWlLk6GJQsqaUBKTNV-1" vertex="1">
          <mxGeometry x="530" y="167" width="50" height="30" as="geometry" />
        </mxCell>
        <mxCell id="hF4yadosnlu50lzWg0tb-18" value="&lt;i&gt;&lt;b&gt;n &lt;/b&gt;beliege Versuche&lt;/i&gt;" style="text;html=1;strokeColor=none;fillColor=none;align=center;verticalAlign=middle;whiteSpace=wrap;rounded=0;" parent="WIyWlLk6GJQsqaUBKTNV-1" vertex="1">
          <mxGeometry x="307" y="49" width="125" height="30" as="geometry" />
        </mxCell>
      </root>
    </mxGraphModel>
  </diagram>
</mxfile>
